# Blender 3.6.4
# www.blender.org
mtllib loot_chest_ani.mtl
o Cube
v -2.000000 4.954423 -2.120944
v -2.000000 2.000000 -1.600000
v 2.000000 2.000000 -1.600000
v 2.000000 4.954423 -2.120944
v -2.000000 4.919694 -2.317906
v -2.000000 1.965271 -1.796961
v 2.000000 1.965271 -1.796961
v 2.000000 4.919694 -2.317906
v -2.000000 4.670638 -2.578619
v -2.000000 2.110138 -2.127134
v 2.000000 2.110138 -2.127134
v 2.000000 4.670638 -2.578619
v -2.000000 3.320929 -2.746799
v 2.000000 3.320929 -2.746799
v -2.000000 2.599687 -2.518083
v 2.000000 4.076899 -2.778555
v -2.000000 4.076899 -2.778555
v 2.000000 2.599687 -2.518083
v -2.000000 0.300000 1.400000
v -2.000000 0.300000 -1.600000
v 2.000000 0.300000 -1.600000
v 2.000000 0.300000 1.400000
v -2.000000 2.000000 1.400000
v -2.000000 2.000000 -1.600000
v 2.000000 2.000040 -1.599773
v 2.000000 2.000000 1.400000
v -1.850000 4.806703 -2.094897
v -1.850000 2.147721 -1.626047
v 1.850000 2.147721 -1.626047
v 1.850000 4.806703 -2.094897
v -1.850000 2.000000 1.250000
v -1.850000 2.000000 -1.450000
v 1.850000 2.000869 -1.447812
v 1.850000 2.000000 1.250000
v -1.850000 0.400000 1.250000
v -1.850000 0.400000 -1.450000
v 1.850000 0.400000 -1.450000
v 1.850000 0.400000 1.250000
v -1.850000 4.771973 -2.291859
v -1.850000 2.112992 -1.823009
v 1.850000 2.112992 -1.823009
v 1.850000 4.771973 -2.291859
v -1.850000 4.621036 -2.468330
v -1.850000 2.194469 -2.040461
v 1.850000 2.194469 -2.040461
v 1.850000 4.621036 -2.468330
v -1.850000 4.083628 -2.678199
v -1.850000 2.627688 -2.421477
v 1.850000 2.627688 -2.421477
v 1.850000 4.083628 -2.678199
v -1.850000 3.338293 -2.648319
v -2.100000 0.200000 1.500000
v 1.850000 3.338293 -2.648319
v -2.100000 0.200000 -1.700000
v 2.100000 0.200000 -1.700000
v 2.100000 0.200000 1.500000
v -2.100000 0.000000 1.500000
v -2.100000 0.000000 -1.700000
v 2.100000 0.000000 -1.700000
v 2.100000 0.000000 1.500000
v -2.271469 1.670376 0.000000
v -2.271469 1.670376 -0.200000
v -2.185127 1.644978 -0.200000
v -2.185127 1.644977 0.000000
v -2.243247 1.766312 0.000000
v -2.243247 1.766312 -0.200000
v -2.156905 1.740912 -0.200000
v -2.156905 1.740912 0.000000
v -2.219046 1.654955 -0.335356
v -2.160802 1.637919 -0.274656
v -2.190824 1.750890 -0.335356
v -2.132581 1.733756 -0.274645
v -2.219046 1.654955 0.135355
v -2.160802 1.647658 0.071914
v -2.190824 1.750890 0.135355
v -2.132581 1.733756 0.074645
v -2.020000 1.600000 0.250000
v -2.020000 1.600001 0.149999
v -2.020000 1.700000 0.250000
v -2.020000 1.700000 0.150000
v -2.020000 1.600000 -0.450000
v -2.020000 1.613709 -0.350646
v -2.020000 1.700000 -0.450000
v -2.020000 1.700000 -0.350000
v -2.020000 1.500000 0.300000
v -2.020000 1.500000 -0.500000
v -2.000000 1.500000 -0.500000
v -2.000000 1.501446 0.299586
v -2.020000 1.800000 0.300000
v -2.020000 1.800000 -0.500000
v -2.000000 1.800000 -0.500000
v -2.000000 1.800000 0.300000
v 2.271469 1.670376 -0.200000
v 2.271469 1.670376 0.000000
v 2.185127 1.644977 0.000000
v 2.185127 1.644977 -0.200000
v 2.243247 1.766312 -0.200000
v 2.243247 1.766312 0.000000
v 2.156905 1.740912 0.000000
v 2.156905 1.740912 -0.200000
v 2.219046 1.654955 0.135355
v 2.160802 1.637821 0.074645
v 2.190824 1.750890 0.135355
v 2.132581 1.733756 0.074645
v 2.219046 1.654955 -0.335356
v 2.160802 1.637821 -0.274645
v 2.190824 1.750890 -0.335356
v 2.132581 1.733756 -0.274645
v 2.020000 1.600000 -0.450000
v 2.020000 1.600000 -0.350000
v 2.020000 1.700000 -0.450000
v 2.020000 1.700000 -0.350000
v 2.020000 1.600000 0.250000
v 2.020000 1.600000 0.150000
v 2.020000 1.700000 0.250000
v 2.020000 1.700000 0.150000
v 2.020000 1.500000 -0.500000
v 2.020000 1.500000 0.300000
v 2.000000 1.500000 0.300000
v 2.000000 1.500000 -0.500000
v 2.020000 1.800000 -0.500000
v 2.020000 1.800006 0.299997
v 2.000000 1.800003 0.299998
v 2.000000 1.800000 -0.500000
v -1.500000 1.830000 -1.600000
v -1.500000 1.830000 -1.620000
v -0.900000 1.830000 -1.620000
v -0.900000 1.830000 -1.600000
v -1.500000 2.000000 -1.600000
v -1.500000 2.000000 -1.620000
v -0.900000 2.000000 -1.620000
v -0.900000 2.000000 -1.600000
v -1.500000 1.980304 -1.596527
v -1.500000 2.000000 -1.600000
v -1.500000 2.000000 -1.660000
v -0.900000 2.000000 -1.660000
v -1.500000 1.978787 -1.651213
v -0.900000 1.978787 -1.651213
v -1.500000 1.970000 -1.630000
v -0.900000 1.970000 -1.630000
v -1.500000 1.978787 -1.608787
v -0.900000 1.978787 -1.608787
v -1.500000 2.021213 -1.608787
v -0.900000 2.021213 -1.608787
v -1.500000 2.030000 -1.630000
v -0.900000 2.030000 -1.630000
v -1.500000 2.021213 -1.651213
v -0.900000 2.021213 -1.651213
v -0.900000 1.980304 -1.596527
v -0.900000 2.000000 -1.600000
v -1.500000 1.970480 -1.767418
v -1.500000 1.950783 -1.763945
v -0.900000 1.950783 -1.763945
v -0.900000 1.970480 -1.767418
v 0.900000 1.830000 -1.600000
v 0.900000 1.830000 -1.620000
v 1.500000 1.830000 -1.620000
v 1.500000 1.830000 -1.600000
v 0.900000 2.000000 -1.600000
v 0.900000 2.000000 -1.620000
v 1.500000 2.000000 -1.620000
v 1.500000 2.000000 -1.600000
v 0.900000 1.980304 -1.596527
v 0.900000 2.000000 -1.600000
v 0.900000 2.000000 -1.660000
v 1.500000 2.000000 -1.660000
v 0.900000 1.978787 -1.651213
v 1.500000 1.978787 -1.651213
v 0.900000 1.970000 -1.630000
v 1.500000 1.970000 -1.630000
v 0.900000 1.978787 -1.608787
v 1.500000 1.978787 -1.608787
v 0.900000 2.021213 -1.608787
v 1.500000 2.021213 -1.608786
v 0.900000 2.030000 -1.630000
v 1.500000 2.030000 -1.630000
v 0.900000 2.021213 -1.651213
v 1.500000 2.021213 -1.651213
v 1.500000 1.980340 -1.596528
v 1.500000 2.012107 -1.600000
v 0.900000 1.970480 -1.767418
v 0.900000 1.950784 -1.763945
v 1.500000 1.950783 -1.763945
v 1.500000 1.970480 -1.767418
v -0.150000 1.400000 1.420000
v -0.150000 1.400000 1.400000
v 0.150000 1.400000 1.400000
v 0.150000 1.400000 1.420000
v -0.150000 1.800000 1.420000
v -0.150000 1.800000 1.400000
v 0.150000 1.800000 1.400000
v 0.150000 1.800000 1.420000
vn -1.0000 -0.0000 -0.0000
vn -0.0000 -0.9848 0.1736
vn 1.0000 -0.0000 -0.0000
vn -0.0000 0.9848 -0.1736
vn -0.0000 0.1736 0.9848
vn -0.0000 0.7231 -0.6908
vn -0.0000 -0.6240 -0.7814
vn -0.0000 -0.9157 -0.4018
vn -0.0000 -0.0420 -0.9991
vn -0.0000 -0.3023 -0.9532
vn -0.0000 0.3191 -0.9477
vn -0.0000 0.0001 -1.0000
vn -0.0000 -0.0000 1.0000
vn -0.0000 0.7071 0.7071
vn -0.0000 1.0000 -0.0000
vn -0.0000 -0.0000 -1.0000
vn 0.0028 1.0000 0.0002
vn -0.0001 1.0000 -0.0027
vn -0.0003 -0.0007 1.0000
vn -0.0000 -0.7599 0.6500
vn -0.0000 -0.3638 0.9315
vn -0.0000 0.9364 0.3509
vn -0.7071 0.7071 -0.0000
vn -0.0000 0.6604 0.7509
vn -0.0000 0.3041 0.9526
vn -0.0000 0.7071 -0.7071
vn 0.7071 0.7071 -0.0000
vn -0.0000 0.0401 0.9992
vn -0.0000 -1.0000 -0.0000
vn -0.9594 0.2822 -0.0000
vn -0.2815 -0.9595 -0.0002
vn 0.9594 -0.2822 -0.0000
vn -0.2127 -0.9769 0.0187
vn -0.2822 -0.9594 -0.0000
vn 0.2822 0.9594 -0.0000
vn -0.1988 -0.9787 0.0520
vn 0.9084 -0.2674 0.3215
vn -0.8896 0.2617 -0.3744
vn -0.2623 -0.9637 -0.0505
vn 0.9093 -0.2773 -0.3103
vn -0.8896 0.2617 0.3744
vn 0.2854 0.9584 0.0013
vn 0.5019 -0.0635 -0.8626
vn -0.5102 0.0735 0.8569
vn 0.4975 -0.0802 0.8637
vn 0.2854 0.9584 -0.0013
vn -0.5102 0.0735 -0.8569
vn 0.9594 0.2822 -0.0000
vn 0.0104 -0.0007 0.9999
vn 0.0361 -0.9993 0.0009
vn 0.2822 -0.9594 -0.0000
vn -0.9594 -0.2822 -0.0000
vn -0.2822 0.9594 -0.0000
vn 0.2666 -0.9638 0.0062
vn -0.9084 -0.2672 -0.3216
vn 0.8896 0.2617 0.3744
vn 0.2666 -0.9638 -0.0062
vn -0.9084 -0.2672 0.3216
vn 0.8896 0.2617 -0.3744
vn -0.2854 0.9584 -0.0013
vn -0.4949 -0.0713 0.8660
vn 0.5102 0.0735 -0.8569
vn -0.4949 -0.0713 -0.8660
vn -0.2854 0.9584 0.0013
vn 0.5102 0.0735 0.8569
vn -0.0001 1.0000 -0.0000
vn -0.0000 -0.3827 -0.9239
vn -0.0000 -0.1736 -0.9848
vn -0.0000 -0.9239 -0.3827
vn -0.0000 0.3827 0.9239
vn -0.0000 -0.9239 0.3827
vn -0.0000 0.9239 0.3827
vn -0.0000 0.3827 -0.9239
vn -0.0000 0.9239 -0.3827
vn -0.0000 -0.9848 0.1738
vt 0.887629 0.053385
vt 0.632884 0.053385
vt 0.632884 0.036402
vt 0.887629 0.036402
vt 0.026452 0.496188
vt 0.366059 0.496187
vt 0.366058 0.513168
vt 0.026452 0.513168
vt 0.632884 0.053457
vt 0.887629 0.053457
vt 0.887629 0.036474
vt 0.632884 0.036474
vt 0.366058 0.200103
vt 0.026452 0.200103
vt 0.026452 0.183123
vt 0.366058 0.183123
vt 0.853689 0.208786
vt 0.531677 0.208786
vt 0.539728 0.200736
vt 0.845638 0.200736
vt 0.366058 0.230715
vt 0.026452 0.230715
vt 0.366058 0.412385
vt 0.366059 0.465576
vt 0.026452 0.465576
vt 0.026452 0.412386
vt 0.649867 0.078931
vt 0.696570 0.104406
vt 0.760257 0.112897
vt 0.823943 0.104406
vt 0.870646 0.078931
vt 0.870646 0.078860
vt 0.823943 0.104334
vt 0.760257 0.112826
vt 0.696571 0.104334
vt 0.649867 0.078860
vt 0.366058 0.283906
vt 0.366058 0.348145
vt 0.026452 0.348146
vt 0.026452 0.283906
vt 0.620703 0.180816
vt 0.365897 0.180816
vt 0.365897 0.036426
vt 0.620703 0.036426
vt 0.365938 0.180739
vt 0.026197 0.180739
vt 0.026197 0.036349
vt 0.365938 0.036349
vt 0.620778 0.180875
vt 0.365972 0.180875
vt 0.365972 0.036485
vt 0.620778 0.036485
vt 0.365696 0.180875
vt 0.025955 0.180875
vt 0.025955 0.036485
vt 0.365696 0.036485
vt 0.371849 0.674408
vt 0.037354 0.674408
vt 0.028991 0.662582
vt 0.380212 0.662582
vt 0.853229 0.574406
vt 0.531013 0.574406
vt 0.531013 0.561078
vt 0.853229 0.561078
vt 0.773188 0.208789
vt 0.531677 0.208789
vt 0.539728 0.200739
vt 0.765137 0.200739
vt 0.531677 0.200738
vt 0.853689 0.200738
vt 0.845639 0.208788
vt 0.539728 0.208788
vt 0.531677 0.200741
vt 0.773188 0.200741
vt 0.765137 0.208791
vt 0.539728 0.208791
vt 0.531677 0.200742
vt 0.853689 0.200742
vt 0.845639 0.208793
vt 0.539728 0.208793
vt 0.530750 0.200740
vt 0.853504 0.200740
vt 0.853504 0.336637
vt 0.530750 0.336637
vt 0.531677 0.200742
vt 0.773188 0.200742
vt 0.765137 0.208792
vt 0.539728 0.208792
vt 0.853689 0.208790
vt 0.531677 0.208790
vt 0.539728 0.200739
vt 0.845638 0.200739
vt 0.773188 0.208786
vt 0.765137 0.200736
vt 0.853504 0.574456
vt 0.530750 0.574456
vt 0.989400 0.336637
vt 0.989400 0.574455
vt 0.853504 0.710352
vt 0.530750 0.710352
vt 0.394853 0.574456
vt 0.394853 0.336637
vt 0.531013 0.543672
vt 0.853229 0.543672
vt 0.853845 0.336947
vt 0.853845 0.574109
vt 0.870785 0.574109
vt 0.870785 0.336947
vt 0.531014 0.336630
vt 0.853228 0.336630
vt 0.853228 0.349958
vt 0.531014 0.349958
vt 0.853782 0.574060
vt 0.853782 0.336898
vt 0.870722 0.336898
vt 0.870722 0.574060
vt 0.531013 0.505226
vt 0.853229 0.505226
vt 0.887725 0.559879
vt 0.887725 0.351177
vt 0.853228 0.367363
vt 0.531014 0.367364
vt 0.887662 0.351128
vt 0.887661 0.559831
vt 0.037354 0.645776
vt 0.288226 0.645776
vt 0.296589 0.657602
vt 0.028991 0.657602
vt 0.913135 0.518138
vt 0.913135 0.392917
vt 0.853229 0.405810
vt 0.531013 0.405810
vt 0.913072 0.392869
vt 0.913072 0.518090
vt 0.921542 0.455479
vt 0.853229 0.455518
vt 0.531013 0.455518
vt 0.037354 0.645646
vt 0.371849 0.645647
vt 0.380212 0.657473
vt 0.028991 0.657473
vt 0.288226 0.674456
vt 0.037354 0.674456
vt 0.028991 0.662630
vt 0.296589 0.662630
vt 0.296589 0.674327
vt 0.028991 0.674327
vt 0.921605 0.455528
vt 0.028991 0.798753
vt 0.028991 0.531156
vt 0.380213 0.531156
vt 0.380213 0.798753
vt 0.028991 0.645857
vt 0.380212 0.645857
vt 0.380212 0.674198
vt 0.028991 0.674198
vt 0.028991 0.645905
vt 0.296589 0.645905
vt 0.529950 0.793514
vt 0.584627 0.793514
vt 0.584627 0.765163
vt 0.529950 0.765163
vt 0.590702 0.738837
vt 0.625129 0.765163
vt 0.619054 0.738837
vt 0.592727 0.821865
vt 0.521849 0.821865
vt 0.521849 0.858316
vt 0.592727 0.858316
vt 0.523874 0.738837
vt 0.495523 0.738837
vt 0.489448 0.765163
vt 0.704107 0.765175
vt 0.679806 0.739225
vt 0.619054 0.858316
vt 0.623104 0.821865
vt 0.625129 0.793514
vt 0.434771 0.739225
vt 0.410470 0.765454
vt 0.489448 0.793514
vt 0.491473 0.821865
vt 0.495523 0.858316
vt 0.687623 0.885809
vt 0.694380 0.885809
vt 0.694380 0.987158
vt 0.687624 0.987158
vt 0.416545 0.793514
vt 0.438821 0.821950
vt 0.432746 0.858401
vt 0.417359 0.885809
vt 0.417359 0.987158
vt 0.679806 0.858401
vt 0.675756 0.821768
vt 0.698032 0.793514
vt 0.410603 0.885809
vt 0.410603 0.987158
vt 0.687624 0.993914
vt 0.417359 0.993915
vt 0.417359 0.879052
vt 0.687623 0.879052
vt 0.417359 0.987269
vt 0.410603 0.987269
vt 0.410603 0.885920
vt 0.417359 0.885920
vt 0.687623 0.987269
vt 0.687624 0.885920
vt 0.694380 0.987269
vt 0.694380 0.885920
vt 0.417359 0.879163
vt 0.687624 0.879163
vt 0.687623 0.994026
vt 0.417359 0.994026
vt 0.312283 0.882572
vt 0.299250 0.882572
vt 0.299250 0.817407
vt 0.312283 0.817407
vt 0.038590 0.882571
vt 0.038590 0.817406
vt 0.025557 0.882571
vt 0.025557 0.817406
vt 0.299250 0.804374
vt 0.038590 0.804372
vt 0.306754 0.934444
vt 0.317334 0.923864
vt 0.332296 0.923864
vt 0.342876 0.934444
vt 0.342876 0.949407
vt 0.332296 0.959987
vt 0.317334 0.959987
vt 0.306754 0.949407
vt 0.038173 0.947910
vt 0.298834 0.947910
vt 0.298834 0.962873
vt 0.038173 0.962873
vt 0.299157 0.804277
vt 0.299157 0.817310
vt 0.038497 0.817310
vt 0.038497 0.804277
vt 0.298834 0.977835
vt 0.038173 0.977835
vt 0.038174 0.888060
vt 0.298834 0.888060
vt 0.298834 0.903022
vt 0.038174 0.903022
vt 0.298834 0.992798
vt 0.038173 0.992798
vt 0.312191 0.817310
vt 0.312191 0.882475
vt 0.299158 0.882475
vt 0.332294 0.923328
vt 0.342874 0.933908
vt 0.342874 0.948870
vt 0.332294 0.959450
vt 0.317332 0.959450
vt 0.306752 0.948870
vt 0.306752 0.933908
vt 0.317332 0.923328
vt 0.038497 0.882475
vt 0.025464 0.817310
vt 0.025464 0.882475
vt 0.298834 0.917985
vt 0.038174 0.917985
vt 0.038173 0.932947
vt 0.298834 0.932948
vt 0.312190 0.882113
vt 0.299157 0.882113
vt 0.299158 0.816947
vt 0.312191 0.816948
vt 0.038497 0.882113
vt 0.038497 0.816947
vt 0.025464 0.882113
vt 0.025464 0.816947
vt 0.299158 0.803914
vt 0.038497 0.803914
vt 0.306754 0.934252
vt 0.317334 0.923672
vt 0.332296 0.923672
vt 0.342876 0.934252
vt 0.342876 0.949215
vt 0.332296 0.959795
vt 0.317334 0.959795
vt 0.306754 0.949215
vt 0.038174 0.947901
vt 0.298834 0.947901
vt 0.298834 0.962864
vt 0.038174 0.962863
vt 0.299158 0.804379
vt 0.299158 0.817412
vt 0.038497 0.817411
vt 0.038497 0.804379
vt 0.298834 0.977826
vt 0.038174 0.977826
vt 0.038173 0.888050
vt 0.298835 0.888050
vt 0.298834 0.903013
vt 0.038173 0.903013
vt 0.298834 0.992789
vt 0.038173 0.992788
vt 0.312191 0.817412
vt 0.312191 0.882577
vt 0.299158 0.882577
vt 0.342876 0.934037
vt 0.342876 0.948999
vt 0.332296 0.959579
vt 0.317334 0.959579
vt 0.306754 0.948999
vt 0.306754 0.934036
vt 0.317334 0.923456
vt 0.332296 0.923456
vt 0.038497 0.882577
vt 0.025464 0.817411
vt 0.025464 0.882577
vt 0.298834 0.917976
vt 0.038173 0.917976
vt 0.038173 0.932938
vt 0.298834 0.932938
vt 0.844417 0.962206
vt 0.837258 0.962206
vt 0.837258 0.819044
vt 0.844416 0.819044
vt 0.958945 0.962206
vt 0.951787 0.962206
vt 0.951787 0.819045
vt 0.958945 0.819045
vt 0.844416 0.811886
vt 0.951787 0.811886
vt 0.951787 0.969364
vt 0.844416 0.969364
s 0
f 5/1/1 6/2/1 2/3/1 1/4/1
f 6/5/2 7/6/2 3/7/2 2/8/2
f 7/9/3 8/10/3 4/11/3 3/12/3
f 8/13/4 5/14/4 1/15/4 4/16/4
f 4/17/5 1/18/5 27/19/5 30/20/5
f 5/14/6 8/13/6 12/21/6 9/22/6
f 18/23/7 11/24/7 10/25/7 15/26/7
f 8/10/3 7/9/3 11/27/3 18/28/3 14/29/3 16/30/3 12/31/3
f 7/6/8 6/5/8 10/25/8 11/24/8
f 6/2/1 5/1/1 9/32/1 17/33/1 13/34/1 15/35/1 10/36/1
f 16/37/9 14/38/9 13/39/9 17/40/9
f 14/38/10 18/23/10 15/26/10 13/39/10
f 12/21/11 16/37/11 17/40/11 9/22/11
f 23/41/1 24/42/1 20/43/1 19/44/1
f 24/45/12 25/46/12 21/47/12 20/48/12
f 25/49/3 26/50/3 22/51/3 21/52/3
f 26/53/13 23/54/13 19/55/13 22/56/13
f 22/57/14 19/58/14 52/59/14 56/60/14
f 30/61/2 27/62/2 39/63/2 42/64/2
f 3/65/5 4/66/5 30/67/5 29/68/5
f 2/69/5 3/70/5 29/71/5 28/72/5
f 1/73/5 2/74/5 28/75/5 27/76/5
f 23/77/15 26/78/15 34/79/15 31/80/15
f 31/81/16 34/82/16 38/83/16 35/84/16
f 26/85/17 25/86/17 33/87/17 34/88/17
f 25/89/18 24/90/18 32/91/18 33/92/18
f 24/93/15 23/18/15 31/19/15 32/94/15
f 35/84/15 38/83/15 37/95/15 36/96/15
f 34/97/1 33/98/1 37/95/1 38/83/1
f 33/99/19 32/100/19 36/96/19 37/95/19
f 32/101/3 31/102/3 35/84/3 36/96/3
f 42/64/20 39/63/20 43/103/20 46/104/20
f 29/105/1 30/106/1 42/107/1 41/108/1
f 28/109/4 29/110/4 41/111/4 40/112/4
f 27/113/3 28/114/3 40/115/3 39/116/3
f 46/104/21 43/103/21 47/117/21 50/118/21
f 41/108/1 42/107/1 46/119/1 45/120/1
f 40/112/22 41/111/22 45/121/22 44/122/22
f 39/116/3 40/115/3 44/123/3 43/124/3
f 19/125/23 20/126/23 54/127/23 52/128/23
f 45/120/1 46/119/1 50/129/1 49/130/1
f 44/122/24 45/121/24 49/131/24 48/132/24
f 43/124/3 44/123/3 48/133/3 47/134/3
f 47/134/3 48/133/3 51/135/3
f 48/132/25 49/131/25 53/136/25 51/137/25
f 20/138/26 21/139/26 55/140/26 54/141/26
f 21/142/27 22/143/27 56/144/27 55/145/27
f 50/118/28 47/117/28 51/137/28 53/136/28
f 52/128/1 54/127/1 58/146/1 57/147/1
f 49/130/1 50/129/1 53/148/1
f 57/149/29 58/150/29 59/151/29 60/152/29
f 56/60/13 52/59/13 57/153/13 60/154/13
f 54/141/16 55/140/16 59/155/16 58/156/16
f 55/145/3 56/144/3 60/157/3 59/158/3
f 65/159/30 66/160/30 62/161/30 61/162/30
f 63/163/31 62/161/31 69/164/31 70/165/31
f 67/166/32 68/167/32 64/168/32 63/169/32
f 61/162/33 64/170/33 74/171/33 73/172/33
f 61/162/34 62/161/34 63/163/34 64/170/34
f 68/167/35 67/166/35 66/160/35 65/159/35
f 70/165/36 69/164/36 81/173/36 82/174/36
f 67/166/37 63/169/37 70/175/37 72/176/37
f 66/160/35 67/166/35 72/176/35 71/177/35
f 62/161/38 66/160/38 71/177/38 69/164/38
f 73/172/39 74/171/39 78/178/39 77/179/39
f 68/167/35 65/159/35 75/180/35 76/181/35
f 64/168/40 68/167/40 76/181/40 74/182/40
f 65/159/41 61/162/41 73/172/41 75/180/41
f 90/183/16 91/184/16 87/185/16 86/186/16
f 76/181/42 75/180/42 79/187/42 80/188/42
f 74/182/43 76/181/43 80/188/43 78/189/43
f 75/180/44 73/172/44 77/179/44 79/187/44
f 89/190/1 90/183/1 86/186/1 85/191/1
f 72/176/45 70/175/45 82/192/45 84/193/45
f 71/177/46 72/176/46 84/193/46 83/194/46
f 69/164/47 71/177/47 83/194/47 81/173/47
f 97/160/48 98/159/48 94/162/48 93/161/48
f 92/195/49 89/190/49 85/191/49 88/196/49
f 85/191/50 86/186/50 87/197/50 88/198/50
f 92/199/15 91/200/15 90/183/15 89/190/15
f 95/170/51 94/162/51 101/172/51 102/171/51
f 99/167/52 100/166/52 96/169/52 95/168/52
f 93/161/51 96/163/51 106/165/51 105/164/51
f 93/161/51 94/162/51 95/170/51 96/163/51
f 100/166/53 99/167/53 98/159/53 97/160/53
f 102/171/54 101/172/54 113/179/54 114/178/54
f 99/167/55 95/168/55 102/182/55 104/181/55
f 98/159/53 99/167/53 104/181/53 103/180/53
f 94/162/56 98/159/56 103/180/56 101/172/56
f 105/164/57 106/165/57 110/174/57 109/173/57
f 100/166/53 97/160/53 107/177/53 108/176/53
f 96/169/58 100/166/58 108/176/58 106/175/58
f 97/160/59 93/161/59 105/164/59 107/177/59
f 122/201/13 123/202/13 119/203/13 118/204/13
f 108/176/60 107/177/60 111/194/60 112/193/60
f 106/175/61 108/176/61 112/193/61 110/192/61
f 107/177/62 105/164/62 109/173/62 111/194/62
f 121/205/3 122/201/3 118/204/3 117/206/3
f 104/181/63 102/182/63 114/189/63 116/188/63
f 103/180/64 104/181/64 116/188/64 115/187/64
f 101/172/65 103/180/65 115/187/65 113/179/65
f 124/207/16 121/205/16 117/206/16 120/208/16
f 117/206/29 118/204/29 119/209/29 120/210/29
f 124/211/66 123/212/66 122/201/66 121/205/66
f 129/213/1 130/214/1 126/215/1 125/216/1
f 130/214/16 131/217/16 127/218/16 126/215/16
f 131/217/3 132/219/3 128/220/3 127/218/3
f 125/221/29 126/215/29 127/218/29 128/222/29
f 135/223/1 137/224/1 139/225/1 141/226/1 129/227/1 143/228/1 145/229/1 147/230/1
f 135/231/67 136/232/67 138/233/67 137/234/67
f 154/235/68 153/236/68 152/237/68 151/238/68
f 137/234/69 138/233/69 140/239/69 139/240/69
f 129/241/70 132/242/70 144/243/70 143/244/70
f 139/240/71 140/239/71 142/245/71 141/246/71
f 153/236/3 154/247/3 150/248/3 149/249/3
f 138/250/3 136/251/3 148/252/3 146/253/3 144/254/3 132/255/3 142/256/3 140/257/3
f 152/237/2 153/236/2 149/249/2 133/258/2
f 151/259/1 152/237/1 133/258/1 134/260/1
f 143/244/72 144/243/72 146/261/72 145/262/72
f 147/263/73 148/264/73 136/232/73 135/231/73
f 145/262/74 146/261/74 148/264/74 147/263/74
f 159/265/1 160/266/1 156/267/1 155/268/1
f 160/266/16 161/269/16 157/270/16 156/267/16
f 161/269/3 162/271/3 158/272/3 157/270/3
f 155/273/29 156/267/29 157/270/29 158/274/29
f 165/275/1 167/276/1 169/277/1 171/278/1 159/279/1 173/280/1 175/281/1 177/282/1
f 165/283/67 166/284/67 168/285/67 167/286/67
f 184/287/68 183/288/68 182/289/68 181/290/68
f 167/286/69 168/285/69 170/291/69 169/292/69
f 159/293/70 162/294/70 174/295/70 173/296/70
f 169/292/71 170/291/71 172/297/71 171/298/71
f 183/288/3 184/299/3 180/300/3 179/301/3
f 168/302/3 166/303/3 178/304/3 176/305/3 174/306/3 162/307/3 172/308/3 170/309/3
f 182/289/75 183/288/75 179/301/75 163/310/75
f 181/311/1 182/289/1 163/310/1 164/312/1
f 173/296/72 174/295/72 176/313/72 175/314/72
f 177/315/73 178/316/73 166/284/73 165/283/73
f 175/314/74 176/313/74 178/316/74 177/315/74
f 189/317/1 190/318/1 186/319/1 185/320/1
f 191/321/3 192/322/3 188/323/3 187/324/3
f 192/322/13 189/317/13 185/320/13 188/323/13
f 185/320/29 186/325/29 187/326/29 188/323/29
f 192/322/15 191/327/15 190/328/15 189/317/15
o Cylinder
